<?xml version="1.0" encoding="UTF-8"?>
<svg xmlns="http://www.w3.org/2000/svg" xmlns:xlink="http://www.w3.org/1999/xlink" viewBox="0 0 96 96" width="96px" height="96px">
<defs>
<linearGradient id="linear0" gradientUnits="userSpaceOnUse" x1="86" y1="34.0345" x2="86" y2="140.884125" gradientTransform="matrix(0.55814,0,0,0.55814,0,0)">
<stop offset="0" style="stop-color:rgb(16.470589%,96.078432%,59.607846%);stop-opacity:1;"/>
<stop offset="1" style="stop-color:rgb(0%,61.960787%,99.215686%);stop-opacity:1;"/>
</linearGradient>
<linearGradient id="linear1" gradientUnits="userSpaceOnUse" x1="86.034943" y1="45.230629" x2="86.034943" y2="127.726128" gradientTransform="matrix(0.55814,0,0,0.55814,0,0)">
<stop offset="0" style="stop-color:rgb(58.431375%,98.039216%,80.000001%);stop-opacity:1;"/>
<stop offset="1" style="stop-color:rgb(43.137255%,78.431374%,100%);stop-opacity:1;"/>
</linearGradient>
</defs>
<g id="surface11947967">
<path style=" stroke:none;fill-rule:nonzero;fill:url(#linear0);" d="M 37.472656 76.5 C 35.5625 76.5 33.652344 75.789062 32.1875 74.355469 L 10.332031 53.046875 C 9.472656 52.210938 9 51.089844 9 49.902344 C 9 48.710938 9.472656 47.59375 10.332031 46.757812 L 14.5625 42.632812 C 16.3125 40.925781 19.15625 40.925781 20.90625 42.632812 L 36.292969 57.636719 C 36.886719 58.214844 37.882812 58.207031 38.464844 57.621094 L 74.972656 20.832031 C 76.695312 19.097656 79.539062 19.050781 81.316406 20.726562 L 85.617188 24.785156 C 86.488281 25.609375 86.980469 26.722656 87 27.910156 C 87.019531 29.101562 86.566406 30.222656 85.71875 31.074219 L 42.847656 74.269531 C 41.375 75.757812 39.425781 76.5 37.472656 76.5 Z M 17.734375 44.347656 C 17.34375 44.347656 16.953125 44.492188 16.65625 44.78125 L 12.425781 48.90625 C 12.152344 49.175781 12 49.527344 12 49.902344 C 12 50.277344 12.152344 50.628906 12.425781 50.898438 L 34.28125 72.210938 C 36.066406 73.953125 38.953125 73.933594 40.71875 72.160156 L 83.589844 28.960938 C 83.859375 28.6875 84.003906 28.335938 84 27.960938 C 83.992188 27.585938 83.835938 27.234375 83.554688 26.96875 L 79.253906 22.910156 C 78.652344 22.339844 77.683594 22.359375 77.101562 22.945312 L 40.589844 59.734375 C 38.84375 61.492188 35.972656 61.519531 34.195312 59.785156 L 18.808594 44.78125 C 18.515625 44.488281 18.125 44.347656 17.734375 44.347656 Z M 17.734375 44.347656 "/>
<path style=" stroke:none;fill-rule:nonzero;fill:url(#linear1);" d="M 37.464844 69.914062 C 36.730469 69.914062 35.996094 69.640625 35.414062 69.097656 L 15.476562 50.40625 L 17.527344 48.214844 L 37.464844 66.90625 L 78.441406 25.933594 L 80.558594 28.054688 L 39.585938 69.027344 C 39 69.617188 38.234375 69.914062 37.464844 69.914062 Z M 37.464844 69.914062 "/>
</g>
</svg>
